<svg width="41" height="41" viewBox="0 0 41 41" fill="none" xmlns="http://www.w3.org/2000/svg">
<path d="M20.3595 35.6289V20.3594M20.3595 11.8763H13.4882C8.78855 11.8763 8.50013 5.08984 13.4882 5.08984C18.8325 5.08984 20.3595 11.8763 20.3595 11.8763ZM20.3595 11.8763H27.2308C32.1441 11.8763 32.1441 5.08984 27.2308 5.08984C21.8864 5.08984 20.3595 11.8763 20.3595 11.8763Z" stroke="#0065BB" stroke-width="2.54492" stroke-linecap="round" stroke-linejoin="round"/>
<path d="M33.9323 20.36V32.2363C33.9323 33.1363 33.5748 33.9993 32.9384 34.6357C32.3021 35.2721 31.439 35.6296 30.5391 35.6296H10.1797C9.27975 35.6296 8.41667 35.2721 7.78031 34.6357C7.14396 33.9993 6.78646 33.1363 6.78646 32.2363V20.36M35.6289 20.36V15.2702C35.6289 14.3702 35.2714 13.5072 34.6351 12.8708C33.9987 12.2345 33.1356 11.877 32.2357 11.877H8.48307C7.58313 11.877 6.72005 12.2345 6.0837 12.8708C5.44734 13.5072 5.08984 14.3702 5.08984 15.2702V20.36H35.6289Z" stroke="#0065BB" stroke-width="2.54492" stroke-linecap="round" stroke-linejoin="round"/>
</svg>
