<svg width="47" height="47" viewBox="0 0 47 47" fill="none" xmlns="http://www.w3.org/2000/svg">
<path d="M23.4753 3.91406C12.7161 3.91406 3.91309 12.717 3.91309 23.4762C3.91309 34.2354 12.7161 43.0384 23.4753 43.0384C34.2345 43.0384 43.0374 34.2354 43.0374 23.4762C43.0374 12.717 34.2345 3.91406 23.4753 3.91406ZM23.4753 39.126C14.8483 39.126 7.82552 32.1032 7.82552 23.4762C7.82552 14.8493 14.8483 7.8265 23.4753 7.8265C32.1022 7.8265 39.125 14.8493 39.125 23.4762C39.125 32.1032 32.1022 39.126 23.4753 39.126ZM24.4534 13.6951H21.519V25.4325L31.6914 31.6924L33.2563 29.1493L24.4534 23.8675V13.6951Z" fill="#00B73B"/>
</svg>
