<svg width="40" height="40" viewBox="0 0 40 40" fill="none" xmlns="http://www.w3.org/2000/svg">
<path d="M26.9479 5.86523C23.7869 5.86523 21.0858 8.11836 19.6019 9.67171C18.1179 8.11836 15.4229 5.86523 12.2634 5.86523C6.81758 5.86523 3.01562 9.66115 3.01562 15.0949C3.01562 21.0821 7.73753 24.9519 12.3056 28.695C14.4622 30.4641 16.6942 32.2919 18.4059 34.3188C18.694 34.6581 19.1162 34.8542 19.5596 34.8542H19.6471C20.092 34.8542 20.5128 34.6566 20.7993 34.3188C22.514 32.2919 24.7445 30.4626 26.9026 28.695C31.4692 24.9534 36.1941 21.0836 36.1941 15.0949C36.1941 9.66115 32.3922 5.86523 26.9479 5.86523Z" fill="#FF4600"/>
</svg>
