<svg width="55" height="55" viewBox="0 0 55 55" fill="none" xmlns="http://www.w3.org/2000/svg">
<path d="M27.4722 30.9061C25.7743 30.9061 24.1144 30.4026 22.7026 29.4592C21.2908 28.5159 20.1905 27.1751 19.5407 25.6064C18.8909 24.0377 18.7209 22.3115 19.0522 20.6462C19.3834 18.9809 20.2011 17.4512 21.4017 16.2505C22.6023 15.0499 24.132 14.2322 25.7974 13.901C27.4627 13.5697 29.1889 13.7397 30.7576 14.3895C32.3263 15.0393 33.6671 16.1397 34.6104 17.5515C35.5537 18.9633 36.0572 20.6231 36.0572 22.321C36.0545 24.5971 35.1492 26.7791 33.5397 28.3886C31.9303 29.998 29.7483 30.9033 27.4722 30.9061ZM27.4722 17.17C26.4535 17.17 25.4576 17.4721 24.6105 18.0381C23.7634 18.6041 23.1032 19.4086 22.7133 20.3498C22.3234 21.2911 22.2214 22.3268 22.4202 23.326C22.6189 24.3252 23.1095 25.243 23.8299 25.9634C24.5503 26.6837 25.4681 27.1743 26.4673 27.3731C27.4665 27.5718 28.5022 27.4698 29.4434 27.08C30.3847 26.6901 31.1891 26.0299 31.7551 25.1828C32.3211 24.3357 32.6232 23.3398 32.6232 22.321C32.6219 20.9553 32.0787 19.6459 31.113 18.6802C30.1473 17.7145 28.8379 17.1714 27.4722 17.17Z" fill="white"/>
<path d="M27.472 51.5101L12.9874 34.4276C12.7861 34.1711 12.5869 33.913 12.3899 33.6533C9.91686 30.3934 8.58037 26.4128 8.58497 22.3211C8.58497 17.3119 10.5749 12.5079 14.1169 8.9659C17.6589 5.4239 22.4629 3.43402 27.472 3.43402C32.4812 3.43402 37.2852 5.4239 40.8272 8.9659C44.3692 12.5079 46.359 17.3119 46.359 22.3211C46.363 26.4109 45.0272 30.3894 42.5559 33.6481L42.5542 33.6533C42.5542 33.6533 42.0391 34.3298 41.9618 34.4208L27.472 51.5101ZM15.1319 31.5843C15.1319 31.5843 15.532 32.1131 15.623 32.2264L27.472 46.2011L39.3365 32.2076C39.412 32.1131 39.8138 31.5808 39.8155 31.5791C41.8368 28.9163 42.9291 25.6641 42.925 22.3211C42.925 18.2227 41.297 14.2921 38.3989 11.3941C35.5009 8.49611 31.5704 6.86803 27.472 6.86803C23.3736 6.86803 19.4431 8.49611 16.5451 11.3941C13.6471 14.2921 12.019 18.2227 12.019 22.3211C12.0147 25.6663 13.1083 28.9205 15.1319 31.5843Z" fill="white"/>
</svg>
