<svg width="44" height="34" viewBox="0 0 44 34" fill="none" xmlns="http://www.w3.org/2000/svg">
<path d="M3.86577 33.4906C2.76377 33.4906 1.84438 33.1222 1.10758 32.3854C0.370789 31.6486 0.00159479 30.7284 0 29.6248V3.86577C0 2.76377 0.369194 1.84437 1.10758 1.10758C1.84597 0.370788 2.76457 0.00159479 3.86338 0H39.196C40.2964 0 41.215 0.369193 41.9518 1.10758C42.6885 1.84597 43.0577 2.76537 43.0593 3.86577V29.6272C43.0593 30.7276 42.6901 31.647 41.9518 32.3854C41.2134 33.1238 40.2948 33.4922 39.196 33.4906H3.86577ZM40.6672 4.50927L22.6014 16.3362C22.4323 16.4239 22.2617 16.4981 22.0894 16.5587C21.9156 16.6177 21.729 16.6472 21.5297 16.6472C21.3303 16.6472 21.1437 16.6177 20.9699 16.5587C20.7961 16.4997 20.6254 16.4255 20.458 16.3362L2.39219 4.50688V29.6248C2.39219 30.0554 2.53013 30.4087 2.80603 30.6846C3.08193 30.9605 3.43518 31.0984 3.86577 31.0984H39.196C39.625 31.0984 39.9774 30.9605 40.2533 30.6846C40.5292 30.4087 40.6672 30.0554 40.6672 29.6248V4.50927ZM21.5297 14.3531L39.9304 2.39219H3.12898L21.5297 14.3531ZM2.39219 5.01402V3.07396V3.15529V2.39219V3.15769V3.03329V5.01402Z" fill="white"/>
</svg>
