<svg width="54" height="54" viewBox="0 0 54 54" fill="none" xmlns="http://www.w3.org/2000/svg">
<g clip-path="url(#clip0_4501_532)">
<path d="M44.7548 40.3804C40.0812 40.3804 35.4546 39.3709 30.8752 37.3519C26.2958 35.3328 22.1358 32.4539 18.3954 28.7149C14.655 24.976 11.776 20.8258 9.75851 16.2643C7.74099 11.7028 6.73148 7.06657 6.72998 2.35552V0H19.9658L22.0409 11.2729L15.6473 17.7225C16.4699 19.1807 17.3859 20.5641 18.3954 21.8727C19.4049 23.1813 20.4892 24.3965 21.6483 25.5182C22.7326 26.6024 23.9201 27.6404 25.2107 28.6319C26.5014 29.6235 27.8938 30.5485 29.3879 31.407L35.8936 24.9012L47.1104 27.2007V40.3804H44.7548Z" fill="white"/>
</g>
<defs>
<clipPath id="clip0_4501_532">
<rect width="53.8405" height="53.8405" fill="white"/>
</clipPath>
</defs>
</svg>
