<svg width="48" height="48" viewBox="0 0 48 48" fill="none" xmlns="http://www.w3.org/2000/svg">
<path fill-rule="evenodd" clip-rule="evenodd" d="M30.9518 18.3041C31.3273 18.6681 31.5429 19.1664 31.551 19.6893C31.5591 20.2122 31.3592 20.717 30.9952 21.0925L23.048 29.2941C22.8329 29.5168 22.575 29.694 22.2899 29.8149C22.0048 29.9359 21.6983 29.9983 21.3886 29.9983C21.0789 29.9983 20.7723 29.9359 20.4872 29.8149C20.2021 29.694 19.9443 29.5168 19.7292 29.2941L16.3314 25.7878C16.1488 25.6024 16.0047 25.3826 15.9075 25.1412C15.8102 24.8998 15.7617 24.6415 15.7648 24.3813C15.7678 24.1211 15.8223 23.864 15.9252 23.6249C16.0281 23.3859 16.1772 23.1695 16.3641 22.9884C16.551 22.8073 16.7718 22.6649 17.014 22.5695C17.2561 22.4742 17.5148 22.4277 17.775 22.4327C18.0352 22.4378 18.2918 22.4943 18.5301 22.599C18.7683 22.7037 18.9835 22.8545 19.1632 23.0428L21.3876 25.3382L28.1634 18.3475C28.5274 17.9719 29.0257 17.7564 29.5486 17.7483C30.0716 17.7401 30.5763 17.9401 30.9518 18.3041Z" fill="#BE0010"/>
<path fill-rule="evenodd" clip-rule="evenodd" d="M21.8121 4.65183C23.0124 4.24106 24.3152 4.24106 25.5155 4.65183L37.0636 8.58796C38.2858 9.00583 39.3312 9.82382 40.0309 10.9096C40.7305 11.9953 41.0434 13.2854 40.9189 14.571L39.4241 29.9369C39.3457 30.7524 39.0929 31.5416 38.6829 32.251C38.2729 32.9604 37.7153 33.5734 37.0478 34.0485L26.9551 41.2601C25.996 41.9448 24.8493 42.3176 23.6709 42.3278C22.4925 42.338 21.3395 41.9852 20.3686 41.3173L10.3567 34.4252C9.66671 33.9503 9.08901 33.3302 8.66419 32.6083C8.23937 31.8864 7.97773 31.0803 7.89764 30.2465L6.39892 14.5631C6.27652 13.2783 6.59083 11.9897 7.29108 10.9055C7.99134 9.8213 9.03664 9.00482 10.2581 8.58796L21.8121 4.65183ZM24.358 8.04368C23.9077 7.8916 23.4199 7.8916 22.9697 8.04368L11.4157 11.9837C10.9574 12.1396 10.5652 12.4456 10.3025 12.8522C10.0398 13.2588 9.92203 13.7421 9.96825 14.2239L11.4689 29.9073C11.5281 30.5383 11.8673 31.1142 12.3918 31.475L22.4017 38.3652C23.1472 38.878 24.1371 38.8701 24.8727 38.3455L34.9674 31.1339C35.2162 30.9544 35.4242 30.7241 35.5775 30.4583C35.7308 30.1924 35.826 29.8971 35.8567 29.5918L37.3535 14.2259C37.4006 13.7434 37.2833 13.2592 37.0205 12.8518C36.7578 12.4444 36.365 12.1378 35.906 11.9818L24.358 8.04368Z" fill="#BE0010"/>
</svg>
