<svg width="42" height="42" viewBox="0 0 42 42" fill="none" xmlns="http://www.w3.org/2000/svg">
<path d="M32.8083 12.5185H32.3766V8.63341C32.372 7.83339 32.0522 7.06742 31.4865 6.50171C30.9208 5.936 30.1548 5.61618 29.3548 5.61164C29.2177 5.58779 29.0775 5.58779 28.9404 5.61164L8.39236 12.5185H7.92614L7.6326 12.6221H7.39086L7.11458 12.7776L6.90737 13.0711L6.66563 13.2783L6.47569 13.451L6.26849 13.71C6.21347 13.7598 6.16682 13.8181 6.13035 13.8827C6.06749 13.9832 6.00986 14.087 5.95768 14.1935L5.85407 14.3834C5.8065 14.5076 5.76614 14.6344 5.7332 14.7633C5.74019 14.8264 5.74019 14.8901 5.7332 14.9532C5.71654 15.1486 5.71654 15.345 5.7332 15.5403V32.8076C5.73683 33.5872 6.03995 34.3356 6.57988 34.8981C7.11982 35.4605 7.85525 35.7939 8.6341 35.8293H32.8083C33.6083 35.8248 34.3743 35.505 34.94 34.9393C35.5057 34.3736 35.8255 33.6076 35.83 32.8076V15.5403C35.8255 14.7403 35.5057 13.9743 34.94 13.4086C34.3743 12.8429 33.6083 12.5231 32.8083 12.5185ZM29.4929 8.219C29.578 8.25037 29.6515 8.30674 29.7039 8.38071C29.7563 8.45468 29.7851 8.54278 29.7865 8.63341V12.5185H16.6116L29.4929 8.219ZM33.2399 32.8076C33.2399 32.9221 33.1945 33.0319 33.1135 33.1128C33.0325 33.1938 32.9227 33.2392 32.8083 33.2392H8.6341C8.51961 33.2392 8.40981 33.1938 8.32886 33.1128C8.2479 33.0319 8.20242 32.9221 8.20242 32.8076V15.5403C8.20242 15.4258 8.2479 15.316 8.32886 15.2351C8.40981 15.1541 8.51961 15.1086 8.6341 15.1086H32.8083C32.9227 15.1086 33.0325 15.1541 33.1135 15.2351C33.1945 15.316 33.2399 15.4258 33.2399 15.5403V32.8076Z" fill="#E38F0A"/>
<path d="M28.4904 26.3324C29.6825 26.3324 30.6488 25.3661 30.6488 24.174C30.6488 22.982 29.6825 22.0156 28.4904 22.0156C27.2984 22.0156 26.332 22.982 26.332 24.174C26.332 25.3661 27.2984 26.3324 28.4904 26.3324Z" fill="#E38F0A"/>
</svg>
